<?xml version="1.0" encoding="UTF-8" standalone="no"?>
<!-- Generator: Adobe Illustrator 16.0.3, SVG Export Plug-In . SVG Version: 6.00 Build 0)  -->

<svg
   xmlns:dc="http://purl.org/dc/elements/1.1/"
   xmlns:cc="http://creativecommons.org/ns#"
   xmlns:rdf="http://www.w3.org/1999/02/22-rdf-syntax-ns#"
   xmlns:svg="http://www.w3.org/2000/svg"
   xmlns="http://www.w3.org/2000/svg"
   xmlns:sodipodi="http://sodipodi.sourceforge.net/DTD/sodipodi-0.dtd"
   xmlns:inkscape="http://www.inkscape.org/namespaces/inkscape"
   version="1.1"
   id="Layer_1"
   x="0px"
   y="0px"
   width="337.77701"
   height="369.45901"
   viewBox="0 50 337.77701 275.29491"
   enable-background="new 0 0 1000 1405.488"
   xml:space="preserve"
   inkscape:version="0.91 r13725"
   sodipodi:docname="lang-c.svg"><metadata
     id="metadata187"><rdf:RDF><cc:Work
         rdf:about=""><dc:format>image/svg+xml</dc:format><dc:type
           rdf:resource="http://purl.org/dc/dcmitype/StillImage" /><dc:title /></cc:Work></rdf:RDF></metadata><defs
     id="defs185" /><sodipodi:namedview
     pagecolor="#ffffff"
     bordercolor="#666666"
     borderopacity="1"
     objecttolerance="10"
     gridtolerance="10"
     guidetolerance="10"
     inkscape:pageopacity="0"
     inkscape:pageshadow="2"
     inkscape:window-width="1918"
     inkscape:window-height="1062"
     id="namedview183"
     showgrid="false"
     fit-margin-top="10"
     fit-margin-left="10"
     fit-margin-right="10"
     fit-margin-bottom="10"
     inkscape:zoom="0.5"
     inkscape:cx="-186.53272"
     inkscape:cy="381.15368"
     inkscape:window-x="0"
     inkscape:window-y="0"
     inkscape:window-maximized="1"
     inkscape:current-layer="Layer_1" /><path
     d="m 221.66973,112.63726 c 0,0 -4.22065,-39.351369 -43.26513,-40.444118 -39.04447,-1.09275 -59.09681,29.513528 -59.09681,73.236678 0,43.72314 22.16111,78.70352 60.15081,78.70352 37.99048,0 42.21113,-43.72315 42.21113,-43.72315 l 72.81352,4.37177 c 0,0 4.2873,39.48933 -26.18258,69.61743 -30.47065,30.12578 -67.87058,35.0478 -93.98884,34.8432 -26.11826,-0.20847 -62.33088,0.4092 -97.350007,-35.45777 C 41.942696,217.91784 36,183.07464 36,148.84756 36,114.61894 42.640971,69.276044 84.279368,34.891642 112.5777,11.526957 141.2643,2.918263 169.95556,2.918263 289.73251,2.918263 297.777,113.38979 297.777,113.38979 l -76.10727,-0.75253 z"
     id="path3"
     inkscape:connector-curvature="0"
     style="fill:#a8b9cc" /></svg>